<svg version="1.0" xmlns="http://www.w3.org/2000/svg"
 width="21px" height="20px" viewBox="0 0 900.000000 831.000000"
 preserveAspectRatio="xMidYMid meet">
<g transform="translate(0.000000,831.000000) scale(0.100000,-0.100000)"
fill="#000000" stroke="none">
<path d="M2653 8299 c1 -6 -32 -29 -73 -50 -100 -53 -172 -126 -229 -229 -22
-42 -113 -223 -127 -255 -7 -16 -25 -57 -39 -90 -109 -246 -132 -287 -222
-399 -158 -195 -173 -227 -152 -324 31 -146 5 -358 -68 -547 -8 -22 -22 -58
-30 -80 -9 -22 -22 -55 -29 -72 -8 -18 -21 -49 -29 -68 -8 -19 -21 -51 -30
-70 -8 -19 -21 -50 -29 -67 -18 -43 -40 -92 -67 -153 -16 -35 -57 -85 -136
-164 -63 -63 -129 -133 -146 -155 l-32 -40 3 -232 c3 -171 0 -238 -9 -255 -7
-13 -16 -37 -20 -54 -4 -16 -24 -75 -44 -130 -20 -55 -40 -113 -44 -130 -5
-16 -13 -41 -19 -55 -5 -14 -18 -45 -27 -70 -10 -25 -24 -61 -33 -80 -8 -19
-20 -48 -27 -65 -18 -41 -57 -127 -93 -206 -29 -61 -88 -147 -148 -214 -15
-16 -38 -54 -52 -84 l-25 -53 13 -138 c14 -144 11 -176 -27 -275 -8 -22 -22
-58 -30 -80 -8 -22 -21 -53 -28 -70 -7 -16 -20 -50 -30 -75 -9 -25 -23 -58
-30 -75 -7 -16 -16 -39 -19 -50 -17 -65 -70 -202 -106 -275 -35 -70 -155 -274
-220 -375 -8 -12 -33 -51 -54 -86 -22 -35 -45 -71 -52 -79 -18 -22 -44 -118
-38 -138 3 -9 10 -26 14 -37 26 -62 30 -92 21 -135 -5 -25 -17 -106 -26 -180
-15 -127 -33 -238 -55 -338 -25 -107 -1 -324 51 -477 6 -16 14 -44 18 -60 4
-17 12 -39 18 -50 5 -11 17 -35 26 -53 9 -19 17 -37 17 -42 0 -5 21 -43 46
-86 151 -255 375 -455 673 -599 153 -74 202 -95 292 -124 26 -8 752 -11 2727
-11 2323 0 2698 2 2744 15 58 15 128 40 156 54 43 22 109 56 127 65 10 6 60
41 110 78 150 110 283 261 396 448 46 75 62 114 94 225 10 33 24 78 30 100 7
22 21 67 30 100 10 33 24 75 31 93 8 18 14 40 14 50 0 9 6 34 14 57 8 22 22
67 31 100 10 33 24 75 31 93 8 18 14 41 14 52 0 11 6 34 14 52 7 18 21 60 31
93 9 33 23 78 30 100 6 22 20 67 30 100 9 33 23 78 30 100 6 22 20 67 30 100
17 60 37 125 60 200 7 22 21 67 30 100 10 33 24 75 31 93 8 18 14 41 14 52 0
11 6 34 14 52 7 18 21 60 31 93 9 33 23 78 30 100 6 22 20 67 30 100 9 33 23
78 30 100 7 22 20 67 30 100 10 33 24 78 30 100 7 22 21 67 30 100 10 33 23
76 30 95 7 19 20 62 30 95 18 61 38 128 60 200 6 22 20 67 30 100 9 33 23 78
30 100 6 22 20 67 30 100 9 33 23 78 30 100 6 22 20 67 30 100 9 33 23 78 30
100 6 22 20 67 30 100 9 33 23 78 30 100 6 22 20 67 30 100 9 33 23 78 30 100
6 22 19 65 28 95 8 30 23 82 32 115 10 33 23 78 30 100 14 46 40 135 62 215 9
30 22 75 29 100 46 163 61 214 89 315 9 33 23 80 30 105 7 25 16 62 20 83 4
23 11 37 20 37 13 0 15 27 15 165 0 138 -2 165 -15 165 -9 0 -16 14 -20 38
-26 156 -166 318 -357 412 -68 34 -78 26 -78 -64 0 -69 -14 -145 -38 -206 -5
-14 -17 -52 -27 -85 -9 -33 -23 -78 -30 -100 -6 -22 -20 -67 -30 -100 -9 -33
-23 -78 -30 -100 -6 -22 -20 -67 -30 -100 -10 -33 -23 -78 -30 -100 -7 -22
-21 -67 -30 -100 -10 -33 -24 -78 -30 -100 -7 -22 -21 -67 -30 -100 -10 -33
-23 -76 -30 -95 -28 -81 -45 -139 -45 -154 0 -8 -6 -30 -14 -48 -7 -18 -21
-60 -31 -93 -9 -33 -23 -78 -30 -100 -6 -22 -20 -67 -30 -100 -9 -33 -23 -78
-30 -100 -6 -22 -20 -67 -30 -100 -10 -33 -23 -78 -30 -100 -15 -49 -37 -120
-60 -200 -10 -33 -24 -78 -30 -100 -7 -22 -21 -67 -30 -100 -10 -33 -23 -76
-30 -95 -7 -19 -20 -62 -30 -95 -9 -33 -23 -78 -30 -100 -6 -22 -20 -67 -30
-100 -9 -33 -23 -78 -30 -100 -6 -22 -20 -67 -30 -100 -10 -33 -23 -78 -30
-100 -7 -22 -21 -67 -30 -100 -10 -33 -24 -78 -30 -100 -7 -22 -21 -67 -30
-100 -10 -33 -24 -75 -31 -93 -8 -18 -14 -41 -14 -52 0 -11 -6 -34 -14 -52 -7
-18 -21 -60 -31 -93 -9 -33 -23 -78 -30 -100 -6 -22 -20 -67 -30 -100 -23 -80
-45 -151 -60 -200 -7 -22 -20 -67 -30 -100 -10 -33 -24 -78 -30 -100 -7 -22
-21 -67 -30 -100 -10 -33 -24 -78 -30 -100 -7 -22 -21 -67 -30 -100 -10 -33
-24 -75 -31 -93 -8 -18 -14 -43 -14 -55 -1 -12 -7 -33 -15 -47 -8 -14 -14 -35
-15 -47 0 -12 -6 -37 -14 -55 -7 -18 -21 -60 -31 -93 -9 -33 -23 -78 -30 -100
-6 -22 -20 -67 -30 -100 -9 -33 -23 -78 -30 -100 -16 -52 -39 -133 -61 -215
-55 -207 -179 -330 -367 -366 -55 -11 -589 -13 -2740 -14 -2784 -1 -2734 -2
-2812 37 -138 68 -227 134 -286 210 -91 119 -121 229 -85 314 18 43 49 72 108
98 l47 21 2458 0 c2175 0 2472 2 2578 15 263 35 384 94 500 245 47 61 110 175
146 262 12 29 27 67 34 83 12 28 27 66 55 145 6 19 16 51 20 70 5 19 16 58 24
85 9 28 23 75 32 105 9 30 22 75 30 100 7 25 21 70 30 100 21 70 42 143 60
200 7 25 20 68 29 95 8 28 21 73 30 100 23 77 42 144 65 220 11 39 27 90 34
115 8 25 21 68 29 95 8 28 22 73 30 100 8 28 22 73 30 100 8 28 22 73 30 100
8 28 22 73 30 100 8 28 22 75 31 105 21 70 43 143 60 200 8 25 21 68 29 95 8
28 22 73 30 100 8 28 22 75 31 105 10 30 21 71 26 90 4 19 13 50 19 68 6 17
16 47 22 65 6 17 15 48 19 67 4 19 13 50 19 68 6 17 16 47 22 65 6 17 15 48
19 67 4 19 13 49 18 65 6 17 18 57 28 90 9 33 23 78 29 100 7 22 21 67 30 100
10 33 24 78 30 100 7 22 21 67 30 100 10 33 24 78 30 100 7 22 21 67 30 100
10 33 24 78 30 100 7 22 21 67 30 100 10 33 23 78 30 100 7 22 20 67 30 100
10 33 23 78 30 100 6 22 20 67 30 100 9 33 23 78 30 100 6 22 20 67 30 100 9
33 23 78 30 100 6 22 20 67 30 100 9 33 23 78 30 100 6 22 20 67 30 100 35
119 48 161 61 195 28 78 66 213 90 325 26 121 24 368 -4 455 -38 122 -79 190
-153 261 -83 79 -235 157 -364 186 -23 5 -39 14 -38 21 2 9 -472 12 -2162 12
-1830 0 -2165 -2 -2165 -14 0 -21 -48 -26 -229 -25 -176 1 -228 8 -223 27 1 8
-17 12 -58 12 -38 0 -59 -4 -57 -11z m2966 -924 c41 -36 45 -55 25 -138 -41
-173 -93 -363 -119 -437 -7 -19 -21 -62 -30 -95 -10 -33 -23 -76 -30 -95 -7
-19 -20 -62 -30 -95 -10 -33 -23 -80 -31 -105 -7 -25 -18 -65 -24 -89 -7 -24
-24 -56 -38 -71 -26 -26 -32 -27 -172 -32 -203 -8 -938 1 -980 12 -20 5 -49
24 -65 40 -46 48 -41 116 20 290 7 19 20 62 30 95 9 33 23 76 30 95 7 19 27
82 45 140 18 58 38 121 45 140 7 19 30 89 51 155 34 108 43 124 85 167 l48 48
555 0 554 0 31 -25z m-516 -1589 c39 -16 67 -59 67 -103 0 -15 -16 -73 -36
-128 -19 -55 -39 -113 -44 -130 -4 -16 -14 -46 -21 -65 -38 -109 -41 -120
-124 -370 -35 -107 -69 -208 -76 -225 -6 -16 -14 -43 -19 -60 -5 -16 -14 -46
-21 -65 -6 -19 -17 -51 -24 -70 -7 -19 -20 -62 -30 -95 -9 -33 -23 -76 -30
-95 -7 -19 -21 -62 -30 -95 -10 -33 -23 -76 -30 -95 -7 -19 -20 -62 -30 -95
-10 -33 -23 -78 -30 -100 -7 -22 -21 -67 -30 -100 -10 -33 -24 -78 -30 -100
-12 -37 -24 -80 -60 -207 -36 -128 -44 -157 -59 -218 -9 -36 -23 -86 -31 -111
-8 -26 -15 -55 -15 -66 0 -11 -6 -39 -14 -64 -7 -24 -20 -78 -29 -119 -9 -41
-23 -109 -32 -151 -9 -42 -17 -129 -18 -194 -2 -106 0 -119 17 -129 50 -30 54
-38 49 -109 l-5 -67 -822 2 -821 3 4 45 c6 79 22 113 57 121 61 12 100 56 201
224 50 83 178 336 229 450 7 17 27 60 43 98 17 37 31 71 31 76 0 5 6 22 14 38
18 37 40 89 59 138 38 100 46 123 67 175 11 30 25 64 30 75 4 11 11 29 13 40
3 11 15 45 27 75 12 30 25 69 30 85 5 17 14 46 21 65 6 19 17 51 24 70 7 19
20 62 30 95 10 33 23 78 30 100 39 126 90 326 118 465 39 188 47 260 47 412 0
183 -15 240 -77 296 -33 29 -42 32 -101 32 l-64 0 5 28 c2 15 15 52 27 82 12
30 25 70 30 88 5 19 11 37 15 40 29 30 1399 37 1468 8z"/>
</g>
</svg>
